<?xml version="1.0" encoding="utf-8"?>
<!-- Generator: Adobe Illustrator 21.0.2, SVG Export Plug-In . SVG Version: 6.00 Build 0)  -->
<svg version="1.1" id="Layer_1" xmlns="http://www.w3.org/2000/svg" xmlns:xlink="http://www.w3.org/1999/xlink" x="0px" y="0px"
	 viewBox="0 0 288 288" style="enable-background:new 0 0 288 288;" xml:space="preserve">
<style type="text/css">
	.st0{fill:none;stroke:#231F20;stroke-width:0.35;stroke-miterlimit:10;}
</style>
<path class="st0" d="M274.3,134.8h-36.5c0,0-0.6,0.1-0.8-1c0,0,0-1.6-0.4-1.5h-10.2c0,0-0.2,1.6-0.4,1.9c0,0-0.5,0.2-0.7-0.2v-1.1
	h-1.3v2.3c0,0,0,0.2-0.3,0.3h-1.4c0,0-0.2-0.2-0.3-0.3v-0.4h-2.1v0.9H213c0,0-0.6,0-0.7-0.4v-0.7c0,0,0-0.2-0.6-0.2h-1.1
	c0,0-0.3,0-0.3,0.8v20.4c0,0,0.1,0.9-0.7,1h-3.1c0,0-0.2,0.1-0.2-0.6v-1.6h-2.9v1.9c0,0,0.1,0.4-0.3,0.5h-1.3c0,0-0.2,0-0.3-0.5
	v-0.7c0,0-0.1-0.2-0.4-0.2h-3.2c0,0,0.1,1-0.2,1.1h-4c0,0-0.2,0-0.3-0.3v-0.4h-2v1c0,0,0.1,0.2-0.2,0.2h-1.9V116
	c0,0,0.1-0.6-0.7-0.6h-1.3c0,0-0.2,0.2-0.3-0.5v-4.8c0,0,0.1-0.4-0.4-0.4H186c0,0-0.2,0.1-0.2-0.8v-4.5l-0.6-0.2
	c0,0,0.1-0.7-0.5-1.9c0,0-1.6-2.4-1.8-4.2c0,0-2-18-1.9-19.6c0,0,0.1,9.9-1.5,17.9c0,0-0.4,2.5-0.9,3.9c0,0-0.4,1.1-0.7,1.6
	c0,0-0.8,1-0.7,1.9l-0.7,0.2v4.9c0,0,0.1,0.7-0.3,0.8h-1.1c0,0-0.4-0.2-0.4,0.4v4.6c0,0,0.1,0.7-0.3,0.7h-0.9c0,0-0.4-0.2-0.5,1.1
	v51.2c0,0,0.1,0.8-0.6,0.8h-3.6c0,0-0.4-0.1-0.5-0.8V166c0,0,0.1-0.5-0.6-0.4h-2.1c0,0-0.1,0.1-0.1,0.8v1.9c0,0,0.2,0.5-0.3,0.6
	h-0.9c0,0-0.1,0-0.1-1v-2.1c0,0-0.1-0.3-0.6-0.4c0,0-0.3,0.2-0.3-0.7v-1.4c0,0-0.1-0.5-0.5-0.5h-2c0,0-0.3,0.2-0.4-0.4v-0.7
	c0,0,0-0.3-0.5-0.2h-4.4v0.9h-2.9c0,0-0.3-2.8-0.4-4c0,0,0.1-0.3-0.7-0.3h-1c0,0-0.3,0-0.3-0.6v-6.1c0,0,0.1-0.6-0.9-0.5h-5.1v1.7
	c0,0,0.1,0.5-0.5,0.6l-5.2,0.7c0,0-0.2-0.1-0.2,0.8v1.9l-2.5,0.4c0,0-0.3-0.1-0.3,0.6v1.2h-5.2c0,0-0.1,0-0.2-0.9v-15.4
	c0,0,0.1-0.7-0.7-0.7h-6.2c0,0-1.6,0.3-3.1-9.5c0,0-2.2,14.3-3.8,14l-0.4,0l0,0.9h-0.9c0,0-0.2-0.2-0.2,0.9v11.2
	c0,0,0.2,0.7-0.4,0.7h-2.7v-2.6c0,0,0-0.3-0.4-0.3h-1.1c0,0-0.2,0.1-0.1,0.8v1c0,0-0.1,0.2-0.5,0.2v-31.7c0,0,0.1-1-0.6-1h-7.7
	c0,0-0.4-0.1-0.4,0.4v27.9c0,0,0,0.8-0.6,0.7h-0.8c0,0-0.5-0.2-0.4,0.8v3.6c0,0,0.1,0.5-0.3,0.5h-1.1c0,0-0.5,0-0.4,0.8v1.4
	c0,0,0.1,0.6-0.6,0.6H96v-1.4c0,0,0-0.6-0.4-0.5h-0.9v-14.8c0,0,0.1-0.7-0.6-0.7h-2.5c0,0-0.5,0.2-0.5-1c0,0,0.2-0.9-0.9-0.9h-9.7
	v1.9h-5.5c0,0-0.4-0.2-0.4,0.7v2.7h-4.9c0,0-0.1-0.1-0.1-0.9v-2.4c0,0,0.1-0.6-0.6-0.6H12.5"/>
</svg>
