<svg id="Layer_1" data-name="Layer 1" 
    xmlns="http://www.w3.org/2000/svg" viewBox="0 0 283 100.54">
    <defs>
        <style>
            .city-draw {
                stroke: #fff;
                stroke-width: 0px;
                stroke-dasharray: 100%;
                stroke-dashoffset: 100%;
                animation-name: draw;
                animation-duration: 5s;
                animation-fill-mode: forwards;
                animation-iteration-count: 1;
                animation-timing-function: linear;
            }

            @keyframes draw {
                to {
                    stroke-dashoffset: 0;
                }
            }
        </style>
        <style>.cls-1{fill:#000;}</style>
    </defs>
    <title>Skyline</title>
    <path class=" city-draw cls-1" d="M178.07,129.76c0-1.78,0-3.52,0-5.25,0-.69.15-1,.86-.82a5.42,5.42,0,0,0,.95,0c0-.76,0-1.45,0-2.14q0-1.59.09-3.18c0-.69,0-.69.71-.9-.16-.78.31-1.3.73-1.92a7,7,0,0,0,1-2.48c.69-3.46,1.38-6.93,1.93-10.42.48-3,.8-6.07,1.12-9.11.19-1.77.26-3.55.38-5.32a.53.53,0,0,1,.19-.37,1.46,1.46,0,0,1,.05.26c.11,3.74.16,7.48.35,11.22.2,4,.54,8,.83,12.06.13,1.83,1.22,3.26,2,4.8a9,9,0,0,1,.5,1.72l.66.13c0,1.54,0,3.09,0,4.65,0,1,0,1,.88,1.09.54.06.5.4.5.77,0,1.67.06,3.33.09,5a2,2,0,0,0,0,.27.67.67,0,0,0,.19.07c1.69,0,1.31,0,1.49,1.48a83.27,83.27,0,0,1,.6,10.79c0,2.57,0,5.14,0,7.7,0,1.66.23,3.32.3,5,.08,1.86.15,3.72.11,5.58-.08,3.79-.23,7.57-.35,11.35,0,.83,0,1.67-.08,2.5,0,.44.09.7.6.63a1.83,1.83,0,0,1,.47,0c.61.07.9-.13.77-.79-.1-.47.08-.74.61-.7s1,0,1.41.09c.2,0,.36.27.53.42s.31.43.47.44c1.28,0,2.55,0,3.86,0l.23-1.19c1.19,0,2.36,0,3.53,0,.4,0,.66,0,.74.54.14.86.18.85,1.43.86.08-.41.2-.84.24-1.28s0-.89,0-1.37h3.56v2.7c1.06-.09,2-.15,3-.27.13,0,.3-.37.31-.57,0-1.15,0-2.3,0-3.45,0-3.58.1-7.16.15-10.74,0-1.8,0-3.6.08-5.4a32.57,32.57,0,0,1,.38-3.35.74.74,0,0,1,.48-.45,5.07,5.07,0,0,1,.94,0c.59,0,1.06,0,1.1.81,0,.15.44.39.69.41,2,.1,4,.15,5.95.22l1.39.08,0-1.06h2.45c.27.88.31.9,1.75.76,0-.82,0-1.64,0-2.46,0-.15.18-.41.28-.41.51,0,1,.07,1.54.11l.16,1.46h.22l.21-2.22a3.64,3.64,0,0,1,.55-.06l7.43.1c1.06,0,2.11,0,3.17,0,.39,0,.54.1.6.52.27,1.94.28,1.94,2.23,2.1.76.06,36.91.07,37.67.11a4.87,4.87,0,0,1,.6.11v.2a3,3,0,0,1-.6.09c-1.35-.07-38.07-.14-39.41-.26a.77.77,0,0,1-.49-.49c-.17-.62-.27-1.27-.39-1.92H234.28c-.08.42-.18.92-.26,1.43-.14.88-.13.88-1.1.77l-.09-1.52h-1c0,.73,0,1.42,0,2.11s-.23.76-.76.73a5.31,5.31,0,0,0-.88,0c-.46,0-.79,0-.86-.58,0-.12-.27-.3-.43-.31-.44,0-.89,0-1.4,0l-.07,1c-1.22,0-2.41,0-3.59,0-1.4,0-2.79-.1-4.19-.12-.54,0-.9-.11-1-.74s-.71-.47-1.14-.52-.61.17-.64.6c-.12,1.52-.32,3-.38,4.56q-.17,3.92-.2,7.84c0,3,0,5.9.05,8.85,0,.67-.1,1.34-.17,2.08-1.14.12-2.3.25-3.46.35-.49,0-.52-.31-.52-.68,0-.54,0-1.08,0-1.61,0-.35-.08-.5-.44-.5h-2.29c0,.79-.08,1.46-.14,2.12a.58.58,0,0,1-.77.59,1.48,1.48,0,0,0-.47,0c-.73.11-1.1-.17-1.1-.93,0-.36-.19-.51-.57-.47-1,.09-2,.14-3,.21-.26,1-.26,1-1.3,1s-1.94.07-2.91.07c-.49,0-1,0-1-.74,0-.09-.21-.24-.33-.24-.45,0-.9,0-1.4,0l-.19,1.41h-2.41c0-.37-.07-.75-.06-1.13.06-2.68.15-5.36.2-8q.05-2.5,0-5c0-2.36,0-4.72-.05-7.08-.07-4.66-.12-9.33-.26-14-.08-2.63-.33-5.26-.5-7.9q0-.37,0-.74c0-1-.1-1.13-1.08-1.07-.63,0-.7-.22-.69-.73,0-1.65,0-3.29-.06-4.94a3.84,3.84,0,0,0-.05-.43c-.08,0-.11-.07-.15-.07-1.35-.06-1.23.27-1.19-1.38,0-1.46,0-2.92,0-4.41l-.6-.11c0-.05-.08-.09-.07-.13a3.58,3.58,0,0,0-.82-2.46,12.37,12.37,0,0,1-2-6.76c-.05-2.84-.29-5.67-.44-8.51q-.13-2.36-.25-4.72c0-.12,0-.25-.08-.53-.34,2.28-.64,4.39-1,6.5-.4,2.56-.82,5.11-1.26,7.66-.25,1.47-.52,2.93-.89,4.37a7.86,7.86,0,0,1-1,2.25,2.24,2.24,0,0,0-.59,1.94c-.6,0-.71.27-.71.76,0,1.49,0,3-.05,4.47,0,1,0,1-1,1h-.81c0,1,0,2,0,3s0,1.71.09,2.57c0,.38-.11.51-.49.54-1.46.13-1.48.14-1.59,1.68q-.35,4.86-.65,9.71c-.18,2.85-.39,5.71-.51,8.56-.07,1.73,0,3.46,0,5.19,0,2.63,0,5.26,0,7.89,0,2.23.2,4.45.3,6.68.05,1.28.08,2.57.13,3.85q.21,5.84.43,11.68c0,.65.06,1.3.1,2.09-1.53,0-3.08.07-4.62.07-.1,0-.23-.23-.28-.38-.21-.66-.41-1.33-.56-2-.1-.45-.36-.48-.74-.43-1.41.17-1.41.16-1.36,1.57a9.46,9.46,0,0,1,0,1.49.77.77,0,0,1-.48.55,8,8,0,0,1-1.44-.09l-.21-3c0-.29,0-.58-.41-.66-.14,0-.28-.31-.33-.5a15.22,15.22,0,0,1-.32-1.86c-.05-.57-.39-.63-.83-.59s-1,0-1.48.1-.64-.17-.69-.6c-.13-1-.13-.93-1.15-.9s-2.25,0-3.38-.08c-.13,0-.27,0-.42,0l-.1,1.17h-3c-.41,0-.44-.26-.48-.58-.17-1.36-.36-2.72-.55-4.17a7.62,7.62,0,0,0-1.16,0c-.63.1-.69-.26-.75-.74-.28-2.21-.58-4.42-.88-6.63a1.8,1.8,0,0,0-.09-.29h-5.22l-.21,2.37c-1.61.19-3.17.4-4.73.54C139,172,139,172,139,173.31c0,.32,0,.63,0,.95s.07.56.11.85l-3.14.44v1.86c-1.24.11-2.49.22-3.74.32-.58,0-1.17,0-1.75.07-.42,0-.61-.08-.62-.55,0-2.16-.11-4.32-.2-6.48-.13-3-.29-6-.45-9,0-.67-.11-1.35-.11-2,0-.46-.15-.62-.64-.59-2,.1-3.91.14-5.87.22a.76.76,0,0,1-.82-.51,24.53,24.53,0,0,1-2.23-7.06,5.09,5.09,0,0,0-.12-.53c0-.06-.08-.11-.17-.23a2.32,2.32,0,0,0-.18.48,71.14,71.14,0,0,1-2.69,11.06,2.26,2.26,0,0,1-.33.74,8.49,8.49,0,0,1-.77.8l-.17-.12-.07,1.1c-1.21.2-1.16.2-1.17,1.45,0,3.53-.1,7.07-.15,10.6a8.14,8.14,0,0,0,0,1c0,.43-.13.66-.53.69-1,.08-2,.14-3,.2l-.17-3.17c-1.15-.1-1.26,0-1.26,1.14,0,.91-.08,1-1,.84-.12-2.12-.27-4.23-.34-6.34-.11-3.35-.22-6.71-.21-10.06,0-2.75.28-5.49.28-8.24s-.2-5.22-.29-7.83c0-.87,0-1.75,0-2.69H98.77c.23,10.39.57,20.76-.07,31.18-.43,0-.78,0-1.13,0s-.68.08-.66.65c.05,1.55,0,3.1,0,4.77-.52,0-1,0-1.45,0s-.64.11-.64.61-.1,1.25-.13,1.88c0,.34-.12.48-.49.45s-.85,0-1.32,0v-1.92L91.62,180c0-1.22,0-2.43,0-3.64,0-3,0-5.95-.09-8.92,0-1.08-.15-2.16-.22-3.23,0-.47-.2-.74-.73-.74a15.51,15.51,0,0,1-1.75-.11.88.88,0,0,1-.88-.83c-.18-1.13-.23-1.15-1.39-1.16-3,0-6,0-9.06-.06h-.78v2H70.23c0,.36,0,.76,0,1.15,0,.67,0,1.35,0,2a.57.57,0,0,1-.4.39c-1.7,0-3.41,0-5.3,0,0-1.26,0-2.34,0-3.41,0-.49-.17-.66-.66-.68-2.9-.15-56-.34-58.94-.51L3,162.22v-.28c.52,0,1,0,1.55,0,2,.1,54.2.22,56.18.33,1.24.07,2.48.12,3.71.23.15,0,.39.32.4.5.06.94.08,1.89.08,2.84,0,.42.17.64.59.64h4.37c0-.82.05-1.63,0-2.42-.1-1.15,0-1.21,1.12-1.17,1.75.06,3.5,0,5.35,0V161c1.09-.06,2.1-.16,3.1-.15,2.48,0,5,.11,7.44.18,1.12,0,1.13,0,1.34,1.16.08.43.24.68.72.71.72,0,1.44.13,2.15.19.37,0,.53.18.56.59.1,1.91.3,3.81.36,5.72s0,4,0,6c0,1.42,0,2.84,0,4.25.36.31,1.11-.18,1.21.58a12,12,0,0,1,0,1.48c.91.21,1.08.1,1.17-.8,0-.52.07-1,.09-1.55s.19-.49.56-.46c1.32.12,1.36.11,1.39-1.21,0-1.15,0-2.3-.08-3.45,0-.56.19-.74.76-.7,1.2.09,1.21,0,1.25-1.14.11-2.86.28-5.72.3-8.58,0-3.88,0-7.76-.1-11.64,0-3.06-.15-6.13-.23-9.19,0-.43,0-.73.58-.74,2.3,0,4.6-.07,6.89-.11,2,0,1.91,0,1.93,1.93,0,3,.2,5.93.2,8.9,0,2.14-.17,4.28-.23,6.42s-.16,4.05-.1,6.08c.12,3.87.34,7.73.52,11.59,0,.09,0,.17,0,.36a1.45,1.45,0,0,0,.08-.26c0-1.78-.14-1.42,1.71-1.78.37-.07.52,0,.5.47,0,.89,0,1.79,0,2.79l2.88-.3c0-1.79.06-3.54.08-5.29,0-2.35,0-4.69.06-7,0-1.14-.23-1.07,1.15-1.28l.13-1.15a1.06,1.06,0,0,0,1.28-.91c.66-2.52,1.31-5.05,2-7.56a31.68,31.68,0,0,0,1.07-9.5c0-.32,0-.65,0-1h.19a4.58,4.58,0,0,1,.12.86,30.19,30.19,0,0,0,1.75,11,11.06,11.06,0,0,0,1.11,2.15.86.86,0,0,0,.66.29c1.94,0,3.88-.1,5.81-.2.53,0,.7.12.72.66.12,3,.29,6,.42,9,.11,2.57.16,5.13.25,7.7,0,.43.07.85.12,1.43l5.31-.38c0-.49,0-.91,0-1.32s.06-.61.53-.65c.65,0,1.29-.21,1.94-.28.49-.05.71-.21.66-.76-.06-.75,0-1.52,0-2.32,1.94-.24,3.79-.46,5.63-.73.18,0,.4-.38.44-.61.1-.57.1-1.16.15-1.8,1.9,0,3.74-.11,5.58-.12.14,0,.39.32.42.51.36,2.37.7,4.75,1,7.19a5.77,5.77,0,0,0,1.11.06c.72-.09.83.36.89.89.15,1.25.29,2.5.45,3.83H157v-1.17h5.55c.1.14.14.17.15.21.24,1.33.24,1.33,1.66,1.29s1.39,0,1.58,1.34c.05.38.11.76.17,1.13,0,.11,0,.28.11.31,1.11.41.53,1.41.74,2.13a2.92,2.92,0,0,1,0,1c0,.53.19.71.71.69s.58-.15.56-.56,0-.95,0-1.42-.07-.88-.11-1.37c.84-.09,1.62-.2,2.41-.23a.71.71,0,0,1,.54.4c.18.62.26,1.28.43,1.91.06.2.3.5.46.51,1.26,0,2.51,0,3.83,0-.08-2.18-.16-4.19-.23-6.21-.17-4.68-.42-9.36-.5-14-.11-6.42-.18-12.85-.09-19.27.05-3.78.45-7.55.71-11.33.13-1.87.32-3.73.42-5.6,0-.67.26-.93.92-.87A5.22,5.22,0,0,0,178.07,129.76Z" transform="translate(-3 -87.86)"/>
</svg>